<svg id="visual" viewBox="0 0 900 600" width="900" height="600" xmlns="http://www.w3.org/2000/svg" xmlns:xlink="http://www.w3.org/1999/xlink" version="1.1"><path d="M0 326L129 326L129 275L257 275L257 359L386 359L386 265L514 265L514 371L643 371L643 289L771 289L771 337L900 337L900 379L900 601L900 601L771 601L771 601L643 601L643 601L514 601L514 601L386 601L386 601L257 601L257 601L129 601L129 601L0 601Z" fill="#504d52"></path><path d="M0 444L129 444L129 355L257 355L257 423L386 423L386 409L514 409L514 441L643 441L643 431L771 431L771 403L900 403L900 451L900 601L900 601L771 601L771 601L643 601L643 601L514 601L514 601L386 601L386 601L257 601L257 601L129 601L129 601L0 601Z" fill="#38383d"></path><path d="M0 515L129 515L129 527L257 527L257 443L386 443L386 483L514 483L514 501L643 501L643 444L771 444L771 530L900 530L900 524L900 601L900 601L771 601L771 601L643 601L643 601L514 601L514 601L386 601L386 601L257 601L257 601L129 601L129 601L0 601Z" fill="#212529"></path></svg>